# xmcd
#
# Track frame offsets: 
#        150
#        9004
#        17922
#        27883
#        36794
#        48162
#        59375
#        70020
#        80703
#        91883
#        102814
#        113642
#        123064
#        135533
#        145869
#        157008
#        170186
#        182363
#        192922
#        204005
#        213937
#        224424
#        236390
#        248015
#
# Disc length: 3469 seconds
#
# Revision: 0
# Processed by: cddbd v1.5.2PL0 Copyright (c) Steve Scherf et al.
# Submitted via: ExactAudioCopy v1.0b1
#
DISCID=360d8b18
DTITLE=Various Artist - Birth Of Motor Town
DYEAR=2002
DGENRE=R&B
TTITLE0=The Falcons - That's What I Aim To Do
TTITLE1=The Falcons - You Must Know I Love You
TTITLE2=Marv Johnson and The Primettes - I'll Get Along
TTITLE3=Marv Johnson and The Primettes - All I Need Is You
TTITLE4=The Corvells - He's So Fine
TTITLE5=The Corvells - Baby Sitting
TTITLE6=Bobby Williams - Tell It To My Face
TTITLE7=Bobby Williams - I'm Depending On You
TTITLE8=Mack Rice - My Baby
TTITLE9=Mack Rice - Baby I'm Coming Home
TTITLE10=The Primettes - Tears Of Sorrow
TTITLE11=The Primettes - Pretty Baby
TTITLE12=Joe Stubbs - What's My Destiny
TTITLE13=Joe Stubbs - Keep On Loving Me
TTITLE14=Bettye LaVette - Witchcraft In The Air
TTITLE15=Bettye LaVette - You Killed My Love
TTITLE16=Benny McCain - You're On My Mind
TTITLE17=Benny McCain - I Don't Want No Part Time Love
TTITLE18=Eddie Floyd - I'm Her Yo Yo Man
TTITLE19=Eddie Floyd - I'll Never Find Another Girl Like You
TTITLE20=The Falcons - Has It Happened To You Yet
TTITLE21=Don Revel and The Primettes - Return Of Stagger Lee
TTITLE22=Al Garner and The Primettes - Searching For My Baby
TTITLE23=Al Garner and The Primettes - Baby Won't You Change Your Mind
EXTD=
EXTT0=
EXTT1=
EXTT2=
EXTT3=
EXTT4=
EXTT5=
EXTT6=
EXTT7=
EXTT8=
EXTT9=
EXTT10=
EXTT11=
EXTT12=
EXTT13=
EXTT14=
EXTT15=
EXTT16=
EXTT17=
EXTT18=
EXTT19=
EXTT20=
EXTT21=
EXTT22=
EXTT23=
PLAYORDER=
